<svg width="28" height="28" viewBox="0 0 28 28" fill="none" xmlns="http://www.w3.org/2000/svg">
<path d="M12.3667 18.6667C12.3667 17.0917 12.5079 15.9592 12.7902 15.2693C13.0726 14.5794 13.6703 13.8258 14.5834 13.0083C15.3806 12.3083 15.9884 11.7009 16.4069 11.186C16.8253 10.6711 17.0342 10.0827 17.0334 9.42083C17.0334 8.62361 16.7662 7.9625 16.2319 7.4375C15.6976 6.9125 14.9536 6.65 14.0001 6.65C13.0084 6.65 12.2551 6.95139 11.7402 7.55417C11.2253 8.15694 10.8606 8.76944 10.6459 9.39167L7.64172 8.10833C8.05006 6.86389 8.79867 5.78472 9.88756 4.87083C10.9764 3.95694 12.3473 3.5 14.0001 3.5C16.0417 3.5 17.6121 4.06894 18.7111 5.20683C19.8101 6.34472 20.3592 7.7105 20.3584 9.30417C20.3584 10.2764 20.1496 11.1078 19.7319 11.7985C19.3142 12.4892 18.6578 13.2716 17.7626 14.1458C16.8098 15.0597 16.2315 15.7551 16.0277 16.2318C15.8239 16.7086 15.7217 17.5202 15.7209 18.6667H12.3667ZM14.0001 25.6667C13.3584 25.6667 12.8093 25.4384 12.3527 24.9818C11.8962 24.5253 11.6675 23.9758 11.6667 23.3333C11.6659 22.6909 11.8946 22.1418 12.3527 21.686C12.8108 21.2302 13.3599 21.0016 14.0001 21C14.6402 20.9984 15.1897 21.2271 15.6486 21.686C16.1074 22.1449 16.3357 22.694 16.3334 23.3333C16.3311 23.9727 16.1028 24.5222 15.6486 24.9818C15.1943 25.4415 14.6448 25.6698 14.0001 25.6667Z" fill="white"/>
</svg>
